<svg xmlns="http://www.w3.org/2000/svg" version="1.1" xmlns:xlink="http://www.w3.org/1999/xlink" viewBox="0 0 200 200"><rect width="200" height="200" fill="url('#gradient')"></rect><defs><linearGradient id="gradient" gradientTransform="rotate(107 0.5 0.5)"><stop offset="0%" stop-color="#97a1cf"></stop><stop offset="100%" stop-color="#36657d"></stop></linearGradient></defs><g><g fill="#445272" transform="matrix(1.7129597985430345,0,0,1.7129597985430345,5.846342934425891,109.19123941356838)" stroke="#c8512e" stroke-width="0.35"><path d="M13.12-7.47L13.12-6.82Q13.12-4.74 12.34-3.13Q11.57-1.53 10.15-0.67Q8.73 0.20 6.91 0.20Q5.10 0.20 3.69-0.64Q2.29-1.47 1.50-3.03Q0.71-4.58 0.67-6.59L0.67-6.59L0.67-7.39Q0.67-9.48 1.44-11.08Q2.21-12.68 3.64-13.54Q5.07-14.41 6.89-14.41L6.89-14.41Q8.70-14.41 10.12-13.55Q11.53-12.70 12.32-11.11Q13.11-9.52 13.12-7.47L13.12-7.47ZM9.63-6.76L9.63-7.41Q9.63-9.53 8.92-10.63Q8.21-11.73 6.89-11.73L6.89-11.73Q4.32-11.73 4.17-7.86L4.17-7.86L4.16-6.82Q4.16-4.73 4.85-3.60Q5.55-2.48 6.91-2.48L6.91-2.48Q8.21-2.48 8.92-3.58Q9.62-4.69 9.63-6.76L9.63-6.76ZM24.54-5.36L24.54-5.21Q24.54-2.74 23.43-1.27Q22.32 0.20 20.44 0.20L20.44 0.20Q18.98 0.20 18.05-0.87L18.05-0.87L18.05 4.06L14.76 4.06L14.76-10.57L17.83-10.57L17.93-9.59Q18.88-10.76 20.42-10.76L20.42-10.76Q22.37-10.76 23.46-9.32Q24.54-7.88 24.54-5.36L24.54-5.36ZM21.25-5.06L21.25-5.41Q21.25-8.22 19.61-8.22L19.61-8.22Q18.44-8.22 18.05-7.38L18.05-7.38L18.05-3.22Q18.48-2.34 19.63-2.34L19.63-2.34Q21.20-2.34 21.25-5.06L21.25-5.06ZM28.44-10.57L30.11-4.61L31.87-10.57L35.39-10.57L31.08 1.77L30.90 2.22Q29.98 4.27 27.66 4.27L27.66 4.27Q27.01 4.27 26.30 4.07L26.30 4.07L26.30 1.72L26.73 1.72Q27.42 1.72 27.79 1.52Q28.15 1.32 28.33 0.80L28.33 0.80L28.59 0.10L24.92-10.57L28.44-10.57ZM36.48-10.57L39.79-10.57L39.79 0.36Q39.78 2.24 38.71 3.25Q37.65 4.27 35.74 4.27L35.74 4.27Q34.92 4.27 34.19 4.10L34.19 4.10L34.19 1.61Q34.76 1.70 35.12 1.70L35.12 1.70Q36.48 1.70 36.48 0.34L36.48 0.34L36.48-10.57ZM36.24-13.29L36.24-13.29Q36.24-13.99 36.75-14.44Q37.26-14.89 38.07-14.89Q38.88-14.89 39.38-14.44Q39.89-13.99 39.89-13.29Q39.89-12.59 39.38-12.14Q38.88-11.69 38.07-11.69Q37.26-11.69 36.75-12.14Q36.24-12.59 36.24-13.29ZM41.24-4.82L41.23-5.38Q41.23-6.96 41.85-8.20Q42.46-9.43 43.61-10.10Q44.77-10.76 46.32-10.76L46.32-10.76Q48.69-10.76 50.06-9.29Q51.43-7.82 51.43-5.29L51.43-5.29L51.43-5.18Q51.43-2.71 50.05-1.25Q48.68 0.20 46.34 0.20L46.34 0.20Q44.08 0.20 42.71-1.16Q41.35-2.51 41.24-4.82L41.24-4.82ZM44.53-5.77L44.52-5.18Q44.52-3.71 44.98-3.03Q45.44-2.34 46.34-2.34L46.34-2.34Q48.10-2.34 48.13-5.05L48.13-5.05L48.13-5.38Q48.13-8.22 46.32-8.22L46.32-8.22Q44.67-8.22 44.53-5.77L44.53-5.77ZM57.71 0L53.03 0L53.03-14.22L57.61-14.22Q59.49-14.22 61.00-13.36Q62.50-12.51 63.34-10.95Q64.19-9.39 64.20-7.46L64.20-7.46L64.20-6.81Q64.20-4.85 63.37-3.31Q62.55-1.76 61.05-0.88Q59.55-0.01 57.71 0L57.71 0ZM57.61-11.57L56.46-11.57L56.46-2.64L57.65-2.64Q59.12-2.64 59.91-3.69Q60.70-4.74 60.70-6.81L60.70-6.81L60.70-7.42Q60.70-9.48 59.91-10.53Q59.12-11.57 57.61-11.57L57.61-11.57ZM69.28-10.57L69.28 0L65.98 0L65.98-10.57L69.28-10.57ZM65.78-13.29L65.78-13.29Q65.78-13.99 66.29-14.44Q66.80-14.89 67.61-14.89Q68.42-14.89 68.93-14.44Q69.43-13.99 69.43-13.29Q69.43-12.59 68.93-12.14Q68.42-11.69 67.61-11.69Q66.80-11.69 66.29-12.14Q65.78-12.59 65.78-13.29ZM70.92-5.24L70.92-5.36Q70.92-6.96 71.45-8.19Q71.97-9.42 72.96-10.09Q73.95-10.76 75.25-10.76L75.25-10.76Q76.90-10.76 77.83-9.65L77.83-9.65L77.95-10.57L80.94-10.57L80.94-0.40Q80.94 1.00 80.29 2.03Q79.64 3.06 78.41 3.61Q77.18 4.16 75.56 4.16L75.56 4.16Q74.39 4.16 73.31 3.72Q72.22 3.28 71.64 2.58L71.64 2.58L73.02 0.64Q73.94 1.73 75.44 1.73L75.44 1.73Q77.63 1.73 77.63-0.52L77.63-0.52L77.63-0.85Q76.68 0.20 75.23 0.20L75.23 0.20Q73.30 0.20 72.11-1.28Q70.92-2.76 70.92-5.24L70.92-5.24ZM74.22-5.16L74.22-5.16Q74.22-3.86 74.71-3.10Q75.20-2.34 76.07-2.34L76.07-2.34Q77.14-2.34 77.63-3.06L77.63-3.06L77.63-7.50Q77.15-8.22 76.09-8.22L76.09-8.22Q75.21-8.22 74.72-7.44Q74.22-6.65 74.22-5.16ZM86.28-10.57L86.28 0L82.98 0L82.98-10.57L86.28-10.57ZM82.78-13.29L82.78-13.29Q82.78-13.99 83.29-14.44Q83.80-14.89 84.61-14.89Q85.42-14.89 85.93-14.44Q86.44-13.99 86.44-13.29Q86.44-12.59 85.93-12.14Q85.42-11.69 84.61-11.69Q83.80-11.69 83.29-12.14Q82.78-12.59 82.78-13.29ZM88.85-13.19L92.14-13.19L92.14-10.57L93.88-10.57L93.88-8.28L92.14-8.28L92.14-3.45Q92.14-2.85 92.35-2.62Q92.57-2.38 93.20-2.38L93.20-2.38Q93.69-2.38 94.02-2.44L94.02-2.44L94.02-0.09Q93.13 0.20 92.17 0.20L92.17 0.20Q90.47 0.20 89.66-0.61Q88.85-1.41 88.85-3.04L88.85-3.04L88.85-8.28L87.50-8.28L87.50-10.57L88.85-10.57L88.85-13.19ZM104.41 0L101.12 0Q100.95-0.32 100.81-0.95L100.81-0.95Q99.90 0.20 98.27 0.20L98.27 0.20Q96.78 0.20 95.73-0.71Q94.69-1.61 94.69-2.98L94.69-2.98Q94.69-4.70 95.96-5.58Q97.23-6.46 99.65-6.46L99.65-6.46L100.66-6.46L100.66-7.01Q100.66-8.47 99.40-8.47L99.40-8.47Q98.23-8.47 98.23-7.31L98.23-7.31L94.94-7.31Q94.94-8.85 96.25-9.80Q97.55-10.76 99.57-10.76Q101.59-10.76 102.76-9.78Q103.94-8.79 103.96-7.07L103.96-7.07L103.96-2.39Q103.98-0.94 104.41-0.17L104.41-0.17L104.41 0ZM99.06-2.15L99.06-2.15Q99.68-2.15 100.08-2.41Q100.49-2.68 100.66-3.01L100.66-3.01L100.66-4.70L99.71-4.70Q97.99-4.70 97.99-3.15L97.99-3.15Q97.99-2.71 98.29-2.43Q98.59-2.15 99.06-2.15ZM109.26-15L109.26 0L105.96 0L105.96-15L109.26-15Z"></path></g></g></svg>